<svg width="46" height="47" fill="none" xmlns="http://www.w3.org/2000/svg"><g clip-path="url(#clip0)" fill="#16C1A1"><path d="M16.887 21.037a1.923 1.923 0 100-3.846 1.923 1.923 0 000 3.846zm12.216 7.804a1.923 1.923 0 100-3.846 1.923 1.923 0 000 3.846z"/><path d="M44.957 25.561l-.697-.952a3 3 0 01-.029-3.497l.679-.961a3 3 0 00-1.037-4.374l-1.037-.556a2.987 2.987 0 01-1.536-3.139l.198-1.159a2.994 2.994 0 00-2.828-3.488l-1.178-.047A3.005 3.005 0 0134.74 5.23l-.33-1.131a2.988 2.988 0 00-4.063-1.914l-1.084.462a2.987 2.987 0 01-3.412-.754l-.782-.876a2.988 2.988 0 00-4.487.037l-.773.886a2.997 2.997 0 01-3.402.801l-1.094-.452a3 3 0 00-4.034 1.98l-.311 1.14a2.977 2.977 0 01-2.715 2.196l-1.178.066a2.993 2.993 0 00-2.771 3.535l.217 1.16a2.988 2.988 0 01-1.49 3.157l-1.027.575a2.991 2.991 0 00-.961 4.383l.697.952a3 3 0 01.028 3.497l-.678.961a3 3 0 001.037 4.374l1.036.556A2.987 2.987 0 014.7 33.959l-.198 1.16a2.994 2.994 0 002.828 3.487l1.178.047a3.005 3.005 0 012.752 2.159l.33 1.131a2.988 2.988 0 004.063 1.913l1.083-.462a2.987 2.987 0 013.413.755l.782.876a2.987 2.987 0 004.487-.038l.773-.886a2.997 2.997 0 013.402-.8l1.094.452a3 3 0 004.034-1.98l.31-1.14a2.976 2.976 0 012.715-2.196l1.179-.066a2.992 2.992 0 002.77-3.535l-.216-1.16a2.988 2.988 0 011.49-3.157l1.027-.575a2.988 2.988 0 00.961-4.383zM12.24 19.114a4.634 4.634 0 014.638-4.638 4.634 4.634 0 014.637 4.638 4.634 4.634 0 01-4.637 4.637 4.64 4.64 0 01-4.638-4.637zm5.533 11.961a1.134 1.134 0 01-1.593.151 1.134 1.134 0 01-.15-1.593l12.168-14.657a1.134 1.134 0 011.593-.15c.48.395.547 1.111.15 1.592L17.774 31.075zm11.33.48a4.634 4.634 0 01-4.637-4.637 4.634 4.634 0 014.637-4.637 4.634 4.634 0 014.637 4.637 4.634 4.634 0 01-4.637 4.638z"/><path d="M10.063 11.521h25.875v25.875H10.063z"/></g><defs><clipPath id="clip0"><path fill="#fff" transform="translate(0 .021)" d="M0 0h46v46.009H0z"/></clipPath></defs></svg>