<svg width="24" height="23" fill="none" xmlns="http://www.w3.org/2000/svg"><g clip-path="url(#clip0)" fill="#535353"><path d="M23.098 11.053c-.206-.281-5.123-6.883-11.402-6.883-6.28 0-11.197 6.602-11.403 6.883a.756.756 0 000 .894c.206.282 5.123 6.883 11.403 6.883s11.196-6.601 11.402-6.882a.756.756 0 000-.895zm-11.402 6.26c-4.626 0-8.632-4.381-9.818-5.813 1.184-1.434 5.182-5.813 9.818-5.813 4.625 0 8.631 4.38 9.818 5.814-1.185 1.433-5.183 5.812-9.818 5.812z"/><path d="M11.696 6.95c-2.52 0-4.569 2.041-4.569 4.55 0 2.508 2.05 4.55 4.569 4.55 2.52 0 4.569-2.042 4.569-4.55 0-2.509-2.05-4.55-4.57-4.55zm0 7.583A3.043 3.043 0 018.65 11.5a3.043 3.043 0 013.046-3.033c1.68 0 3.046 1.36 3.046 3.033a3.043 3.043 0 01-3.046 3.033z"/></g><defs><clipPath id="clip0"><path fill="#fff" transform="translate(.146)" d="M0 0h23.099v23H0z"/></clipPath></defs></svg>