<svg width="24" height="23" fill="none" xmlns="http://www.w3.org/2000/svg"><g clip-path="url(#clip0)" fill="#535353"><path d="M11.987 23C5.618 23 .437 17.841.437 11.5S5.619 0 11.988 0c6.368 0 11.55 5.159 11.55 11.5S18.354 23 11.986 23zm0-21.563C6.414 1.438 1.88 5.952 1.88 11.5s4.533 10.063 10.106 10.063c5.572 0 10.106-4.514 10.106-10.063S17.559 1.437 11.987 1.437z"/><path d="M17.04 17.73a.718.718 0 01-.51-.212l-5.053-5.031a.717.717 0 01-.211-.508V5.271a.72.72 0 01.722-.719.72.72 0 01.721.719v6.41l4.841 4.82a.718.718 0 01-.51 1.228z"/></g><defs><clipPath id="clip0"><path fill="#fff" transform="translate(.438)" d="M0 0h23.099v23H0z"/></clipPath></defs></svg>