<svg width="25" height="25" fill="none" xmlns="http://www.w3.org/2000/svg"><path d="M8.496 11.719H3.223A3.226 3.226 0 010 8.496V3.223A3.226 3.226 0 013.223 0h5.273a3.226 3.226 0 013.223 3.223v5.273a3.226 3.226 0 01-3.223 3.223zM3.223 1.563c-.916 0-1.66.744-1.66 1.66v5.273c0 .916.744 1.66 1.66 1.66h5.273c.916 0 1.66-.744 1.66-1.66V3.223c0-.916-.744-1.66-1.66-1.66H3.223zm18.554 10.156h-5.273a3.226 3.226 0 01-3.223-3.223V3.223A3.226 3.226 0 0116.504 0h5.273A3.226 3.226 0 0125 3.223v5.273a3.226 3.226 0 01-3.223 3.223zM16.504 1.563c-.916 0-1.66.744-1.66 1.66v5.273c0 .916.745 1.66 1.66 1.66h5.273c.916 0 1.66-.744 1.66-1.66V3.223c0-.916-.744-1.66-1.66-1.66h-5.273zM19.14 25a5.866 5.866 0 01-5.859-5.86 5.867 5.867 0 015.86-5.859A5.867 5.867 0 0125 19.141 5.867 5.867 0 0119.14 25zm0-10.156a4.302 4.302 0 00-4.296 4.297 4.302 4.302 0 004.297 4.297 4.302 4.302 0 004.297-4.297 4.302 4.302 0 00-4.297-4.297zM8.496 25H3.223A3.226 3.226 0 010 21.777v-5.273a3.226 3.226 0 013.223-3.223h5.273a3.226 3.226 0 013.223 3.223v5.273A3.226 3.226 0 018.496 25zM3.223 14.844c-.916 0-1.66.745-1.66 1.66v5.273c0 .916.744 1.66 1.66 1.66h5.273c.916 0 1.66-.744 1.66-1.66v-5.273c0-.916-.744-1.66-1.66-1.66H3.223z" fill="#fff"/></svg>