<svg width="25" height="25" fill="none" xmlns="http://www.w3.org/2000/svg"><path d="M12.5 12.532C5.912 12.532.552 17.892.552 24.48a.52.52 0 001.039 0c0-6.015 4.893-10.909 10.91-10.909 6.015 0 10.908 4.894 10.908 10.91a.52.52 0 001.04 0c0-6.59-5.36-11.949-11.949-11.949zM12.5 0a5.721 5.721 0 00-5.714 5.714A5.721 5.721 0 0012.5 11.43a5.721 5.721 0 005.714-5.715A5.721 5.721 0 0012.5 0zm0 10.39a4.681 4.681 0 01-4.675-4.676A4.681 4.681 0 0112.5 1.04a4.681 4.681 0 014.675 4.675A4.681 4.681 0 0112.5 10.39z" fill="#000"/></svg>