<svg width="25" height="25" fill="none" xmlns="http://www.w3.org/2000/svg"><path d="M24.457 11.38c.492-.48.666-1.184.454-1.839a1.782 1.782 0 00-1.448-1.22l-6.053-.88a.79.79 0 01-.596-.433l-2.706-5.485A1.782 1.782 0 0012.5.524a1.78 1.78 0 00-1.607 1L8.186 7.007a.791.791 0 01-.596.433l-6.054.88A1.78 1.78 0 00.09 9.542a1.782 1.782 0 00.454 1.838l4.38 4.27a.793.793 0 01.228.7l-1.034 6.029a1.781 1.781 0 00.713 1.753 1.778 1.778 0 001.888.137l5.414-2.847a.793.793 0 01.736 0l5.414 2.847a1.786 1.786 0 001.888-.137 1.782 1.782 0 00.714-1.753l-1.035-6.028a.792.792 0 01.229-.701l4.38-4.27zm-5.594 5.139l1.034 6.028a.777.777 0 01-.315.774.78.78 0 01-.834.061l-5.414-2.847a1.8 1.8 0 00-1.669 0l-5.413 2.847a.78.78 0 01-.834-.06.778.778 0 01-.314-.775l1.033-6.028a1.793 1.793 0 00-.515-1.587l-4.38-4.27a.776.776 0 01-.2-.811.777.777 0 01.638-.54l6.053-.879a1.79 1.79 0 001.35-.98l2.707-5.486a.777.777 0 01.71-.44c.308 0 .573.164.71.44l2.706 5.485c.261.53.766.897 1.35.981l6.053.88a.777.777 0 01.64.539.777.777 0 01-.201.811l-4.38 4.27a1.792 1.792 0 00-.515 1.587z" fill="#000"/></svg>