<svg width="25" height="25" fill="none" xmlns="http://www.w3.org/2000/svg"><path d="M8.055 16.162h13.283a.733.733 0 00.704-.531l2.93-10.254a.733.733 0 00-.704-.934H6.366l-.524-2.356a.733.733 0 00-.715-.573H.732a.732.732 0 100 1.465H4.54l2.645 11.9a2.2 2.2 0 00-1.325 2.016 2.2 2.2 0 002.198 2.197h13.28a.732.732 0 100-1.465H8.058a.733.733 0 01-.002-1.465zM23.297 5.908l-2.512 8.79H8.645L6.69 5.907h16.606zM7.324 21.29a2.2 2.2 0 002.197 2.196 2.2 2.2 0 002.198-2.197 2.2 2.2 0 00-2.198-2.197 2.2 2.2 0 00-2.197 2.197zm2.197-.733a.733.733 0 010 1.465.733.733 0 010-1.465zm8.155.733a2.2 2.2 0 002.197 2.196 2.2 2.2 0 002.197-2.197 2.2 2.2 0 00-2.197-2.197 2.2 2.2 0 00-2.197 2.197zm2.197-.733a.733.733 0 010 1.465.733.733 0 010-1.465z" fill="#454545"/></svg>