<svg width="30" height="30" fill="none" xmlns="http://www.w3.org/2000/svg"><path d="M29.058 12.719L17.12.782C16.602.263 16.072 0 15.545 0c-.73 0-1.584.548-1.584 2.09v7.36a14.898 14.898 0 00-9.623 4.414A14.907 14.907 0 000 24.414c0 1.713.287 3.395.855 5a.879.879 0 001.657 0c1.745-4.937 6.278-8.378 11.45-8.787v7.282c0 1.543.852 2.09 1.583 2.09.527 0 1.057-.262 1.576-.781L29.058 17.28A3.204 3.204 0 0030 15c0-.864-.335-1.674-.942-2.281zm-1.243 3.32L15.878 27.974a1.81 1.81 0 01-.15.136 1.938 1.938 0 01-.01-.202v-8.2a.879.879 0 00-.878-.88h-.01a14.895 14.895 0 00-8.644 2.862 14.988 14.988 0 00-4.268 4.79 13.41 13.41 0 01-.16-2.067c0-7.22 5.873-13.16 13.092-13.24a.879.879 0 00.869-.88V2.092c0-.08.004-.146.01-.203.043.036.093.08.15.137l11.936 11.937c.275.275.427.644.427 1.038s-.152.763-.427 1.038z" fill="#000"/></svg>