<svg width="25" height="25" fill="none" xmlns="http://www.w3.org/2000/svg"><path d="M12.5 23.61c-.356 0-.7-.13-.966-.364a288.72 288.72 0 00-2.843-2.445l-.005-.004c-2.518-2.146-4.693-4-6.206-5.826C.788 12.931 0 10.995 0 8.881c0-2.055.704-3.95 1.983-5.337 1.294-1.404 3.07-2.177 5-2.177 1.444 0 2.766.456 3.929 1.356A8.035 8.035 0 0112.5 4.381a8.038 8.038 0 011.588-1.658c1.164-.9 2.485-1.356 3.928-1.356 1.93 0 3.707.773 5 2.177C24.297 4.93 25 6.826 25 8.88c0 2.115-.788 4.05-2.48 6.091-1.513 1.826-3.687 3.68-6.206 5.826-.86.733-1.835 1.564-2.848 2.45-.267.233-.61.362-.966.362zM6.984 2.831c-1.517 0-2.91.605-3.924 1.704-1.03 1.116-1.596 2.66-1.596 4.344 0 1.779.661 3.369 2.143 5.157 1.432 1.728 3.563 3.544 6.03 5.646l.004.003c.862.735 1.84 1.569 2.857 2.458a343.667 343.667 0 012.866-2.462c2.467-2.102 4.597-3.917 6.03-5.645 1.48-1.788 2.142-3.378 2.142-5.157 0-1.685-.567-3.228-1.596-4.344a5.274 5.274 0 00-3.924-1.704c-1.111 0-2.131.353-3.032 1.05-.803.62-1.362 1.406-1.69 1.955a.917.917 0 01-.794.451.917.917 0 01-.794-.451c-.328-.55-.887-1.335-1.69-1.956-.9-.696-1.921-1.05-3.032-1.05z" fill="#4F28EA"/></svg>