<svg width="25" height="23" fill="none" xmlns="http://www.w3.org/2000/svg"><path d="M12.095 3.674l.405.56.405-.56a7.539 7.539 0 011.489-1.555c1.078-.834 2.292-1.252 3.622-1.252 1.793 0 3.435.716 4.633 2.016C23.835 4.169 24.5 5.94 24.5 7.88c0 1.971-.728 3.797-2.364 5.772h0c-1.48 1.786-3.617 3.608-6.146 5.764h0l-.022.018a288.85 288.85 0 00-2.831 2.436h0a.966.966 0 01-1.274 0h0a294.264 294.264 0 00-2.85-2.451l-.002-.002h0c-2.53-2.156-4.667-3.98-6.146-5.765C1.228 11.677.5 9.852.5 7.88c0-1.94.665-3.71 1.85-4.997A6.229 6.229 0 016.985.867c1.33 0 2.544.418 3.622 1.252h0a7.533 7.533 0 011.489 1.555z" fill="#FF4D4D" stroke="#FF4C4C"/></svg>