<svg width="31" height="31" fill="none" xmlns="http://www.w3.org/2000/svg"><circle cx="15.5" cy="15.5" r="15.5" fill="#E3DFFF"/><path d="M27.583 14.667h-.908c-.396-2.361-2.438-4.167-4.895-4.167a5.031 5.031 0 00-4.927 3.991c-.405-.339-.866-.519-1.353-.519-.486 0-.947.18-1.352.519-.465-2.275-2.47-3.991-4.868-3.991-2.632 0-4.795 2.021-5.009 4.583h-.854a.417.417 0 100 .834h.854C4.485 18.479 6.648 20.5 9.28 20.5c2.695 0 4.89-2.17 4.963-4.863.355-.535.798-.832 1.257-.832.46 0 .902.297 1.257.832.074 2.693 2.296 4.863 5.023 4.863 2.74 0 4.97-2.243 4.97-5h.833a.417.417 0 100-.833zm-18.303 5c-2.314 0-4.197-1.87-4.197-4.167 0-2.297 1.883-4.167 4.197-4.167 2.32 0 4.137 1.83 4.137 4.167 0 2.336-1.817 4.167-4.137 4.167zm12.5 0c-2.314 0-4.197-1.87-4.197-4.167 0-2.297 1.883-4.167 4.197-4.167 2.32 0 4.137 1.83 4.137 4.167 0 2.336-1.817 4.167-4.137 4.167z" fill="#821BF0"/></svg>