<svg width="31" height="31" fill="none" xmlns="http://www.w3.org/2000/svg"><circle cx="15.5" cy="15.5" r="15.5" fill="#E3DFFF"/><path d="M23.648 21.082H22.09c.766-.425 1.405-1 1.85-1.668a.352.352 0 00-.292-.547h-.643c.66-1.295.995-2.594.995-3.867 0-4.853-4.143-9-9-9-4.848 0-9 4.138-9 9 0 1.273.334 2.572.995 3.867h-.643a.351.351 0 00-.293.547c.455.682 1.104 1.255 1.845 1.668H6.352a.352.352 0 00-.293.547C7.005 23.047 8.791 24 10.504 24h8.992c1.697 0 3.506-.963 4.445-2.371a.351.351 0 00-.293-.547zM6.703 15c0-4.497 3.8-8.297 8.297-8.297 4.497 0 8.297 3.8 8.297 8.297 0 1.264-.366 2.564-1.088 3.867H20.45c.864-1.177 1.334-2.527 1.334-3.867 0-3.678-3.107-6.785-6.785-6.785S8.215 11.322 8.215 15c0 1.34.47 2.69 1.335 3.867H7.79C7.07 17.564 6.703 16.264 6.703 15zm12.85 3.867h-9.106C9.46 17.717 8.918 16.35 8.918 15c0-3.297 2.785-6.082 6.082-6.082 3.297 0 6.082 2.785 6.082 6.082 0 1.35-.542 2.717-1.529 3.867zm-12.47.7h15.835c-.842.889-2.15 1.515-3.422 1.515h-8.992c-1.233 0-2.552-.603-3.42-1.515zm12.413 3.73h-8.992c-1.233 0-2.552-.603-3.42-1.515h15.834c-.842.889-2.15 1.515-3.422 1.515z" fill="#821BF0"/></svg>