<svg width="31" height="31" fill="none" xmlns="http://www.w3.org/2000/svg"><circle cx="15.5" cy="15.5" r="15.5" fill="#E3DFFF"/><g clip-path="url(#clip0)" fill="#821BF0"><path d="M19.986 7.028a.327.327 0 00-.351.056c-1.873 1.696-3.083 4.046-3.083 5.988v5.095c0 .177.148.325.325.325h.798v6.178c0 .178.148.326.325.326h1.852a.334.334 0 00.33-.325V7.326a.329.329 0 00-.196-.3zm-.46 17.317h-1.2v-5.853h1.2v5.853zm0-6.503h-2.323v-4.77c0-1.548.914-3.469 2.324-4.969v9.739zM13.847 7.003a.328.328 0 00-.325.325v4.336H12.32V7.328a.328.328 0 00-.325-.325.328.328 0 00-.325.325v4.336h-1.2V7.328a.328.328 0 00-.325-.325.328.328 0 00-.325.325v5.745c0 .898.806 1.64 1.851 1.77v3h-.728v6.126c0 .577.438 1.032.997 1.032h.113c.559 0 .997-.45.997-1.032v-6.127h-.729v-3c1.05-.13 1.852-.871 1.852-1.769V7.328a.328.328 0 00-.325-.325zm-1.444 11.49v5.476h-.005c0 .182-.12.382-.346.382h-.113c-.226 0-.347-.195-.347-.382v-5.476h.81zm1.123-5.42h-.005c0 .616-.698 1.136-1.526 1.136-.828 0-1.526-.52-1.526-1.136v-.759h3.057v.76z"/></g><defs><clipPath id="clip0"><path fill="#fff" transform="translate(6 7)" d="M0 0h18v18H0z"/></clipPath></defs></svg>