<svg width="31" height="31" fill="none" xmlns="http://www.w3.org/2000/svg"><circle cx="15.5" cy="15.5" r="15.5" fill="#E3DFFF"/><g clip-path="url(#clip0)"><path d="M25.936 13.871l-1.875-2.504s-.041-.073-.167-.113L16.088 9.05a.323.323 0 00-.176 0l-7.806 2.204s-.107.03-.17.117l-1.872 2.5a.323.323 0 00.155.499l1.652.56v4.484c0 .13.079.248.2.298l7.806 3.226c.023.01.053.024.123.024s.123-.024.123-.024l7.807-3.226a.324.324 0 00.199-.298v-4.483l1.652-.561a.323.323 0 00.155-.499zm-19.089.03l1.473-1.967.596.164 3.352.923 3.17.874-1.859 2.292-6.732-2.285zm8.83 8.256l-7.16-2.959V15.15l5.068 1.72a.32.32 0 00.354-.102l1.739-2.143v7.532zM16 13.38l-6.606-1.82L16 9.696l6.606 1.866L16 13.38zm7.484 5.818l-7.161 2.96v-7.533l1.738 2.143a.323.323 0 00.355.102l5.068-1.72v4.048zm-5.063-3.011l-1.86-2.292 7.12-1.961 1.472 1.968-6.732 2.285z" fill="#821BF0"/></g><defs><clipPath id="clip0"><path fill="#fff" transform="translate(6 6)" d="M0 0h20v20H0z"/></clipPath></defs></svg>