<svg width="31" height="31" fill="none" xmlns="http://www.w3.org/2000/svg"><circle cx="15.5" cy="15.5" r="15.5" fill="#E3DFFF"/><g clip-path="url(#clip0)" fill="#821BF0"><path d="M24.51 7.54a.97.97 0 00-1.303-.045L15.85 13.79c-1.775 1.523-6.122 6.603-6.306 6.819a.3.3 0 00.015.406l1.2 1.2a.3.3 0 00.395.024c.242-.188 5.936-4.625 8.077-7.134l5.303-6.213a.969.969 0 00-.025-1.351zm-.422.953l-5.312 6.223c-1.875 2.197-6.717 6.05-7.78 6.886l-.815-.814c.856-.994 4.521-5.222 6.06-6.543l7.353-6.292a.37.37 0 01.495.014.375.375 0 01-.001.526z"/><path d="M11.185 21.633l-1.028-1.04a.3.3 0 00-.327-.067l-.242.099a4.02 4.02 0 00-2.513 3.751v.324a.3.3 0 00.3.3 4.014 4.014 0 003.859-2.979l.027-.099a.3.3 0 00-.076-.29zm-3.51 2.753v-.01a3.424 3.424 0 012.139-3.196l.057-.023.766.774a3.415 3.415 0 01-2.963 2.455zm6.505-8.591l-.423.424 1.798 1.798.424-.424-1.798-1.798zm-.899.9l-.424.424 1.799 1.798.423-.424-1.798-1.798z"/><path d="M24.896 16.909a12.194 12.194 0 00-2.883-5.6l-.443.404a11.584 11.584 0 012.74 5.317.9.9 0 01-1.322.96l-.616-.338a1.449 1.449 0 00-1.718.238 1.448 1.448 0 00-.277 1.704l1.226 2.398a1.5 1.5 0 01-.834 2.096c-2.704.882-6.25-.141-9.035-2.61l-.398.449c2.23 1.976 4.939 3.07 7.387 3.07.78 0 1.535-.111 2.238-.34a2.101 2.101 0 001.176-2.938l-1.228-2.4a.849.849 0 01.165-1.002.848.848 0 011.008-.14l.616.337a1.5 1.5 0 002.198-1.605zM8.838 8.779c-2.683 2.686-2.252 7.68 1.003 11.616l.462-.382C7.246 16.316 6.8 11.668 9.262 9.203c2.528-2.525 7.405-1.952 11.103 1.304l.396-.45c-4-3.522-9.126-4.072-11.923-1.278z"/><path d="M16.666 8.814a1.5 1.5 0 00-1.498 1.498 1.5 1.5 0 001.498 1.5 1.5 1.5 0 001.5-1.5 1.5 1.5 0 00-1.5-1.498zm0 2.398a.9.9 0 010-1.799.9.9 0 010 1.799zM12.77 8.214a1.5 1.5 0 00-1.499 1.499 1.5 1.5 0 001.499 1.498 1.5 1.5 0 001.499-1.498 1.5 1.5 0 00-1.5-1.499zm0 2.398a.9.9 0 010-1.798.9.9 0 010 1.798zm-2.698.3a1.5 1.5 0 00-1.499 1.499 1.5 1.5 0 001.5 1.498 1.5 1.5 0 001.498-1.498 1.5 1.5 0 00-1.499-1.499zm0 2.398a.9.9 0 010-1.798.9.9 0 010 1.798zm.6 1.199a1.5 1.5 0 00-1.499 1.499 1.5 1.5 0 001.499 1.498 1.5 1.5 0 001.498-1.498 1.5 1.5 0 00-1.498-1.499zm0 2.398a.9.9 0 010-1.799.9.9 0 010 1.799zm5.095 2.997a1.5 1.5 0 00-1.498 1.499 1.5 1.5 0 001.498 1.498 1.5 1.5 0 001.499-1.498 1.5 1.5 0 00-1.499-1.499zm0 2.398a.9.9 0 010-1.798.9.9 0 010 1.798zm5.545-8.093a1.35 1.35 0 00-1.349 1.349 1.35 1.35 0 001.35 1.349 1.35 1.35 0 001.348-1.35 1.35 1.35 0 00-1.349-1.348zm0 2.098a.75.75 0 11.002-1.5.75.75 0 01-.002 1.5z"/></g><defs><clipPath id="clip0"><path fill="#fff" transform="translate(7 7)" d="M0 0h18v18H0z"/></clipPath></defs></svg>