<svg width="31" height="31" fill="none" xmlns="http://www.w3.org/2000/svg"><circle cx="15.5" cy="15.5" r="15.5" fill="#E3DFFF"/><g clip-path="url(#clip0)" fill="#821BF0"><path d="M24.306 16.034a.352.352 0 00-.146-.475 5.513 5.513 0 00-6.08.607l-.568-.568.928-.928a.352.352 0 00-.497-.497l-.928.928-2.264-2.264a4.91 4.91 0 00.4-5.244.352.352 0 00-.621.33 4.187 4.187 0 01-.282 4.411l-1.491-1.491a.86.86 0 00-.796-.233.859.859 0 00-.624.546L7.054 22.839a.854.854 0 00.2.907.855.855 0 00.907.2l11.683-4.283a.86.86 0 00.546-.624.86.86 0 00-.233-.796l-1.577-1.577a4.81 4.81 0 015.25-.486.352.352 0 00.476-.146zM12.599 21.57L9.43 18.4l.88-2.395 4.686 4.687-2.395.878zm-1.717.63L8.8 20.119l.363-.99 2.709 2.708-.99.363zm-2.963 1.086a.153.153 0 01-.168-.037.153.153 0 01-.037-.168l.82-2.235 1.62 1.62-2.235.82zm11.784-4.398a.155.155 0 01-.1.115l-2.162.793-4.203-4.198a.352.352 0 00-.497.497l3.972 3.967-.99.363-5.148-5.148.363-.99 1.769 1.769a.35.35 0 00.497 0 .351.351 0 000-.497l-2-2 .793-2.161a.155.155 0 01.115-.101.153.153 0 01.147.043l7.401 7.4c.054.054.05.116.043.148zm-2.1-10.083a.352.352 0 00.351-.351c0-.295.24-.534.534-.534.683 0 1.238-.555 1.238-1.237a.352.352 0 00-.703 0c0 .294-.24.534-.535.534-.682 0-1.237.555-1.237 1.237 0 .194.158.351.352.351zm3.119 3.319A1.28 1.28 0 0022 10.847c0-.317.258-.575.574-.575a.352.352 0 100-.703 1.28 1.28 0 00-1.277 1.277.575.575 0 01-.575.575.352.352 0 000 .703zm2.028.678a1.126 1.126 0 002.25 0c0-.62-.505-1.125-1.125-1.125s-1.125.505-1.125 1.125zm1.125-.422a.422.422 0 110 .845.422.422 0 010-.845z"/><path d="M18.078 11.971a1.126 1.126 0 000-2.25c-.62 0-1.125.505-1.125 1.125s.505 1.125 1.125 1.125zm0-1.546a.422.422 0 110 .844.422.422 0 010-.844zM11.5 8.25a1.126 1.126 0 000-2.25c-.62 0-1.125.505-1.125 1.125S10.88 8.25 11.5 8.25zm0-1.547a.422.422 0 110 .845.422.422 0 010-.845zm11.408 11.639a.352.352 0 00-.497.497l.332.332a.35.35 0 00.497 0 .352.352 0 000-.498l-.332-.331zM24.566 20a.352.352 0 10-.498.496l.332.332a.35.35 0 10.497-.497l-.331-.332zm-.166-1.658l-.332.331a.352.352 0 00.497.497l.332-.331a.352.352 0 10-.497-.497zM22.743 20l-.332.33a.352.352 0 10.497.498l.332-.332a.352.352 0 00-.497-.497zm1.574-12.965a.35.35 0 00.249-.103l.331-.332a.352.352 0 10-.497-.497l-.332.331a.352.352 0 00.249.6zM22.66 8.692a.35.35 0 00.248-.103l.332-.332a.352.352 0 00-.497-.497l-.332.332a.352.352 0 00.249.6zm1.906-.932a.352.352 0 00-.498.497l.332.332a.35.35 0 00.497 0 .352.352 0 000-.497l-.331-.332zm-1.823-.828a.35.35 0 00.497 0 .352.352 0 000-.498l-.332-.331a.352.352 0 00-.497.497l.332.332zm-3.54 5.98l-.255.255a.352.352 0 10.498.497l.255-.255a.352.352 0 10-.498-.497z"/></g><defs><clipPath id="clip0"><path fill="#fff" transform="translate(7 6)" d="M0 0h18v18H0z"/></clipPath></defs></svg>