<svg width="31" height="31" fill="none" xmlns="http://www.w3.org/2000/svg"><circle cx="15.5" cy="15.5" r="15.5" fill="#E3DFFF"/><path d="M25.375 19.438h-.313v-2.5a1.252 1.252 0 00-1.25-1.25v-5.313a1.252 1.252 0 00-1.25-1.25H9.438a1.252 1.252 0 00-1.25 1.25v5.313a1.252 1.252 0 00-1.25 1.25v2.5h-.312a.312.312 0 00-.313.312V21a.313.313 0 00.313.313h.313v1.25a.313.313 0 00.312.312h.938a.312.312 0 00.306-.251l.262-1.311h14.488l.262 1.31a.312.312 0 00.306.252h.938a.313.313 0 00.313-.313v-1.25h.312a.313.313 0 00.313-.312v-1.25a.313.313 0 00-.313-.313zM8.812 10.374a.626.626 0 01.626-.625h13.124a.626.626 0 01.625.625v5.313h-.625v-1.25a1.252 1.252 0 00-1.25-1.25h-3.75a1.252 1.252 0 00-1.25 1.25v1.25h-.625v-1.25a1.252 1.252 0 00-1.25-1.25h-3.75a1.252 1.252 0 00-1.25 1.25v1.25h-.624v-5.313zm13.126 4.063v1.25h-5v-1.25a.626.626 0 01.625-.626h3.75a.626.626 0 01.625.626zm-6.875 0v1.25h-5v-1.25a.626.626 0 01.624-.626h3.75a.626.626 0 01.626.626zm-7.5 2.5a.626.626 0 01.625-.625h15.624a.626.626 0 01.625.625v2.5H7.563v-2.5zm.368 5.312h-.369v-.938h.557l-.188.938zm16.507 0h-.37l-.187-.938h.556v.938zm.625-1.563H6.938v-.625h18.125v.625z" fill="#821BF0"/></svg>