<svg width="31" height="31" fill="none" xmlns="http://www.w3.org/2000/svg"><circle cx="15.5" cy="15.5" r="15.5" fill="#E3DFFF"/><path d="M10.372 13.873a.572.572 0 00-.571.572v7.393a3.282 3.282 0 00-.885 2.251v.054c0 .158.128.285.286.285h11.815a.286.286 0 00.286-.285v-.054a3.28 3.28 0 00-.916-2.283v-7.361a.572.572 0 00-.458-.56l2.683-4.162c.01-.014.012-.032.019-.048.007-.018.018-.036.021-.055l.002-.003.426-2.47a.286.286 0 00-.444-.284l-2.021 1.396c-.012.008-.02.021-.03.03-.015.015-.032.027-.045.045 0 .002 0 .004-.002.006l-.004.004-3.416 5.53h-.15V8.055h.446v2.427a.286.286 0 10.571 0V7.77a.286.286 0 00-.285-.285h-.733V6.32a.75.75 0 00-.75-.75h-.803a.75.75 0 00-.749.75v7.552h-.443L12.575 6.57a.286.286 0 00-.341-.216l-2.806.635a.286.286 0 00-.216.342l1.339 5.923v.002l.14.616h-.319zm.67.572h3.897l.012.002.012-.002h1.707l.012.002.012-.003h3.122v7.224h-9.444v-7.223h.67zm9.68 9.412H9.497c.05-.605.3-1.169.715-1.618h9.795c.414.45.664 1.013.715 1.618zm1.444-14.772l-.882-.594 1.117-.772-.235 1.366zm-1.302-.188l1.116.752-2.724 4.224H17.79l3.075-4.976zm-5.45-2.754h.804c.098 0 .178.08.178.178v1.164h-1.16V6.32c0-.098.08-.178.178-.178zm-.177 1.913h1.159v5.817h-1.16V8.056zm-4.066 5.352l.365-.082a.286.286 0 00-.126-.557l-.365.082-.227-1.004.366-.083a.286.286 0 00-.126-.557l-.366.082-.227-1.004.366-.083a.285.285 0 10-.126-.557l-.366.082-.226-1.004.365-.083a.286.286 0 00-.126-.557l-.365.083-.154-.682 2.248-.508 1.555 6.897h-2.36l-.105-.465z" fill="#821BF0"/></svg>