<svg width="31" height="31" fill="none" xmlns="http://www.w3.org/2000/svg"><circle cx="15.5" cy="15.5" r="15.5" fill="#E3DFFF"/><path d="M20.46 25.46h-8.92a1.081 1.081 0 01-1.08-1.082V7.622a1.081 1.081 0 011.08-1.081h8.92a1.081 1.081 0 011.08 1.08v16.757a1.08 1.08 0 01-1.08 1.081zM11.54 7.08a.54.54 0 00-.54.54v16.757a.54.54 0 00.54.54h8.92a.54.54 0 00.54-.54V7.622a.54.54 0 00-.54-.54h-8.92z" fill="#821BF0"/><path d="M21.27 9.513H10.73a.27.27 0 010-.54h10.54a.27.27 0 010 .54zm0 12.433H10.73a.27.27 0 010-.54h10.54a.27.27 0 110 .54zM16 24.43a.997.997 0 110-1.995.997.997 0 010 1.994zm0-1.453a.456.456 0 100 .912.456.456 0 000-.912zm1.081-14.612H14.92a.27.27 0 110-.54h2.162a.27.27 0 010 .54z" fill="#821BF0"/></svg>