<svg width="31" height="31" fill="none" xmlns="http://www.w3.org/2000/svg"><circle cx="15.5" cy="15.5" r="15.5" fill="#E3DFFF"/><g clip-path="url(#clip0)"><path d="M25.968 15.62a.317.317 0 00-.285-.18H15.116l2.037-2.083a.32.32 0 00.044-.057.314.314 0 00.034-.034 3.214 3.214 0 00.727-2.034 3.212 3.212 0 00-3.208-3.209c-.833 0-1.617.316-2.216.89l-.006.005-.005.005-.042.04a.321.321 0 00-.018.02l-5.174 5.17a4.413 4.413 0 000 6.233 5.451 5.451 0 004.015 1.588H18.3a.317.317 0 100-.635h-7.01a4.745 4.745 0 01-3.551-1.402 3.777 3.777 0 010-5.336 2.963 2.963 0 012.966-.733l-1.627 1.507a1.98 1.98 0 00-.706 1.52c0 .532.207 1.032.584 1.409a2.395 2.395 0 001.705.706c.644 0 1.25-.25 1.705-.706.116-.116.22-.24.312-.37l1.818-1.859H25.03l-4.136 5.264H18.3a.317.317 0 100 .635h2.748c.098 0 .19-.045.25-.122l4.634-5.898a.318.318 0 00.036-.335zm-14.633-1.472c.176.106.343.23.497.373l-.777.763a1.639 1.639 0 00-.663-.263l.943-.873zm.854 3.378a.316.316 0 00-.057.08 2.33 2.33 0 01-.216.249c-.335.335-.782.52-1.256.52a1.77 1.77 0 01-1.257-.52 1.349 1.349 0 01-.397-.96c0-.363.141-.704.398-.96.193-.194.45-.3.723-.3.273 0 .53.106.723.3l.012.01.011.01.014.01.012.01.014.008.013.008.015.007.013.006.017.005.013.005.016.004.014.003c.005.002.01.002.016.003l.014.002h.018l.013.001.03-.001h.003a.31.31 0 00.027-.004l.009-.003a.311.311 0 00.02-.005c.004 0 .008-.002.011-.003l.018-.007.012-.005.016-.008.012-.007.015-.008.012-.009.014-.01.01-.01.013-.01.944-.928c.227.362.349.781.349 1.22 0 .47-.14.918-.4 1.297zm1.023-1.046a2.93 2.93 0 00-.707-2.176l-.001-.001a3.566 3.566 0 00-2.677-1.201c-.22 0-.436.02-.647.058l3.792-3.788a2.556 2.556 0 011.778-.714 2.576 2.576 0 011.965 4.241l-.015.014-3.488 3.567z" fill="#821BF0"/></g><defs><clipPath id="clip0"><path fill="#fff" transform="translate(6 5)" d="M0 0h20v20H0z"/></clipPath></defs></svg>