<svg width="20" height="14" fill="none" xmlns="http://www.w3.org/2000/svg"><path d="M18.242.149H1.758A1.76 1.76 0 000 1.906v10.187c0 .97.789 1.758 1.758 1.758h16.484A1.76 1.76 0 0020 12.093V1.906A1.76 1.76 0 0018.242.15zm-.23 1.172l-.234.195-7.08 5.896a1.09 1.09 0 01-1.395 0L2.222 1.516l-.235-.195h16.026zm-16.84.846l5.77 4.804-5.77 3.84V2.166zm17.07 10.512H1.758a.587.587 0 01-.574-.469L7.88 7.753l.672.56a2.257 2.257 0 002.894 0l.672-.56 6.697 4.457a.587.587 0 01-.574.47zm.586-1.869l-5.77-3.84 5.77-4.803v8.643z" fill="#6C6C6C"/></svg>