<svg width="20" height="20" fill="none" xmlns="http://www.w3.org/2000/svg"><path d="M18.242 3.149H1.758A1.76 1.76 0 000 4.906v10.187c0 .97.789 1.758 1.758 1.758h16.484A1.76 1.76 0 0020 15.093V4.906a1.76 1.76 0 00-1.758-1.757zm-.23 1.172l-.234.195-7.08 5.896a1.09 1.09 0 01-1.395 0L2.222 4.516l-.235-.195h16.026zm-16.84.846l5.77 4.804-5.77 3.84V5.166zm17.07 10.512H1.758a.587.587 0 01-.574-.469l6.697-4.457.672.56a2.258 2.258 0 002.894 0l.672-.56 6.697 4.457a.587.587 0 01-.574.47zm.586-1.869l-5.77-3.84 5.77-4.803v8.643z" fill="#fff"/></svg>