<svg width="20" height="20" fill="none" xmlns="http://www.w3.org/2000/svg"><g clip-path="url(#clip0)"><path d="M19.372 8.48L11.414.521c-.346-.347-.7-.522-1.05-.522-.488 0-1.057.365-1.057 1.394V6.3a9.932 9.932 0 00-6.415 2.943A9.938 9.938 0 000 16.276c0 1.142.192 2.263.57 3.333a.586.586 0 001.105 0 8.861 8.861 0 017.632-5.858v4.855c0 1.029.57 1.394 1.057 1.394.35 0 .704-.175 1.05-.521l7.958-7.958c.405-.405.628-.945.628-1.521s-.223-1.116-.628-1.52zm-.829 2.212l-7.957 7.958a1.413 1.413 0 01-.1.091 1.3 1.3 0 01-.007-.135V13.14a.586.586 0 00-.586-.586h-.006a9.93 9.93 0 00-5.763 1.907 9.993 9.993 0 00-2.845 3.194 8.891 8.891 0 01-.107-1.378c0-4.814 3.915-8.773 8.728-8.827a.586.586 0 00.58-.586v-5.47c0-.052.002-.097.005-.134.03.024.063.054.1.091l7.958 7.958c.184.184.285.43.285.692a.972.972 0 01-.285.692z" fill="#16C1A1"/></g><defs><clipPath id="clip0"><path fill="#fff" d="M0 0h20v20H0z"/></clipPath></defs></svg>