<svg width="20" height="20" fill="none" xmlns="http://www.w3.org/2000/svg"><path d="M19.566 9.103c.393-.383.532-.946.363-1.47a1.426 1.426 0 00-1.159-.976l-4.842-.704a.632.632 0 01-.477-.346l-2.165-4.388A1.426 1.426 0 0010 .419c-.55 0-1.043.307-1.286.8L6.549 5.607a.633.633 0 01-.477.346l-4.843.704a1.425 1.425 0 00-1.158.976c-.17.524-.03 1.087.363 1.47l3.504 3.416c.15.146.218.355.182.56l-.827 4.823a1.425 1.425 0 00.57 1.403 1.422 1.422 0 001.511.11l4.331-2.278a.634.634 0 01.59 0l4.33 2.277a1.432 1.432 0 002.082-1.512l-.828-4.822a.633.633 0 01.183-.56l3.504-3.417zm-4.476 4.112l.827 4.823a.622.622 0 01-.252.62.624.624 0 01-.666.048l-4.332-2.278a1.44 1.44 0 00-1.335 0l-4.33 2.278a.624.624 0 01-.667-.049.622.622 0 01-.252-.62l.827-4.822c.08-.465-.075-.94-.413-1.27L.993 8.53a.62.62 0 01-.16-.65.621.621 0 01.51-.43l4.843-.704a1.43 1.43 0 001.08-.785l2.166-4.388A.621.621 0 0110 1.22c.246 0 .459.132.568.353l2.165 4.388c.209.424.612.717 1.08.785l4.842.703a.621.621 0 01.511.432.622.622 0 01-.16.649l-3.504 3.415c-.338.33-.492.804-.412 1.27z" fill="#F7981D"/></svg>