<svg width="18" height="18" fill="none" xmlns="http://www.w3.org/2000/svg"><path d="M13.127 0H4.872A4.878 4.878 0 000 4.872v8.256A4.878 4.878 0 004.872 18h8.256A4.878 4.878 0 0018 13.128V4.872A4.878 4.878 0 0013.127 0zm3.818 13.128a3.821 3.821 0 01-3.818 3.817H4.872a3.821 3.821 0 01-3.817-3.817V4.872a3.821 3.821 0 013.817-3.817h8.256a3.821 3.821 0 013.817 3.817v8.256z" fill="#413E70"/><path d="M9 4.078A4.927 4.927 0 004.078 9 4.927 4.927 0 009 13.922 4.927 4.927 0 0013.922 9 4.927 4.927 0 009 4.078zm0 8.788A3.87 3.87 0 015.133 9 3.871 3.871 0 019 5.133 3.87 3.87 0 0112.866 9 3.87 3.87 0 019 12.866zM14.04 2.33a1.456 1.456 0 000 2.909c.801 0 1.454-.652 1.454-1.454 0-.802-.653-1.455-1.455-1.455zm0 1.854a.4.4 0 110-.8.4.4 0 010 .8z" fill="#413E70"/></svg>