<svg width="18" height="18" fill="none" xmlns="http://www.w3.org/2000/svg"><g clip-path="url(#clip0)"><path d="M10.215 17.965H7.327a.875.875 0 01-.875-.873V10.59H4.767a.875.875 0 01-.875-.873V6.93c0-.482.393-.873.875-.873h1.685V4.663c0-1.384.435-2.56 1.259-3.404.827-.847 1.982-1.294 3.342-1.294l2.202.003a.876.876 0 01.874.874v2.586a.875.875 0 01-.875.873l-1.483.001c-.452 0-.567.09-.592.118-.04.046-.089.176-.089.535v1.103h2.053a.876.876 0 01.883.873l-.001 2.786a.875.875 0 01-.875.873h-2.06v6.502a.875.875 0 01-.875.873zM7.51 16.91h2.523v-6.792c0-.322.262-.583.584-.583h2.35l.001-2.422h-2.351a.584.584 0 01-.584-.583V4.955c0-.412.042-.88.354-1.233.376-.426.97-.475 1.384-.475h1.3V1.022l-2.019-.003c-2.185 0-3.542 1.396-3.542 3.643V6.53a.584.584 0 01-.584.583H4.95v2.422h1.976c.322 0 .584.261.584.583v6.792zm5.743-15.886z" fill="#000"/></g><defs><clipPath id="clip0"><path fill="#fff" d="M0 0h18v18H0z"/></clipPath></defs></svg>