<svg width="19" height="11" fill="none" xmlns="http://www.w3.org/2000/svg"><path d="M4.001.8h-2.42s-.14-.008-.307.014c-.167.023-.414.033-.668.32v.001l-.002.001a.862.862 0 00-.189.723c.028.165.092.289.092.289.023.058 1.78 4.365 3.997 6.68C6.067 10.46 7.739 11 9.228 11H10c.254 0 .481-.012.732-.142.252-.13.468-.49.468-.769 0-.3.007-.592.046-.754.035-.152.022-.115.036-.115.014.003.04.009.09.031.107.049.273.157.456.3.366.284.8.696 1.287 1.015.697.462 1.453.434 1.453.434h2.494l.027-.002s.382-.01.776-.25c.196-.12.43-.341.508-.673.078-.331-.022-.678-.214-.984-.07-.112-.413-.608-1.777-1.819-.352-.312-.593-.534-.688-.651-.034-.042-.036-.038-.043-.04.008-.02.087-.187.297-.46.22-.286.554-.684.984-1.231a8.794 8.794 0 001.173-1.934c.12-.283.206-.54.258-.772.05-.233.092-.426.016-.702a.898.898 0 00-.361-.486 1.102 1.102 0 00-.417-.157c-.252-.047-.475-.04-.682-.04-.434 0-2.365.016-2.524.016-.188 0-.486.078-.624.157-.343.196-.45.465-.45.465l-.033.058-.018.064s-.44 1.422-.892 2.155h-.001c-.532.864-.929 1.206-1.103 1.303l-.021.012a.838.838 0 01-.042-.196c-.026-.228-.011-.549-.011-.86 0-.86.065-1.397-.007-1.905-.036-.254-.127-.537-.335-.755-.208-.218-.477-.325-.745-.387h-.002C9.831.862 9.531.806 8.806.8c-.923-.009-1.524.02-2.058.258l-.006.003-.004.003a1.71 1.71 0 00-.524.364c-.074.076-.16.131-.22.373a.67.67 0 00.102.534.653.653 0 00.441.256c-.02-.003.089.02.174.063a.626.626 0 01.177.126v.002c-.008-.01.073.191.094.376.022.184.018.333.018.333l-.001.036.003.036s.037.408.018.829c-.01.21-.036.422-.072.552-.001.006-.002.004-.004.01-.15-.105-.497-.47-.974-1.258-.441-.73-.854-2.04-.854-2.04l-.01-.03-.01-.028s-.077-.293-.417-.532C4.359.84 4.056.81 4.056.81L4.001.8zM3.861 2c.035.012.107.038.12.044l-.014-.042.019.044h.002v.002h.001c-.03-.021-.004 0 0 .005.016.056.382 1.318.954 2.264.522.86.907 1.343 1.327 1.63.42.289.984.26 1.271.11.384-.2.491-.527.565-.8.074-.272.1-.549.113-.81.023-.5-.016-.908-.02-.948 0-.023.006-.218-.025-.48-.03-.266-.086-.595-.32-.925.262-.04.409-.1.94-.094.678.006.781.035 1.048.096.145.033.161.061.147.047-.013-.015 0-.024.016.092.033.234-.005.831-.005 1.738 0 .256-.025.617.018.994.042.377.16.86.616 1.143.26.16.756.216 1.225-.045.468-.26.948-.76 1.54-1.721.584-.947.933-2.193.97-2.324l.011-.007c.011 0-.002.002.014.002.223 0 2.119-.015 2.525-.015.111 0 .16.006.244.01-.034.129-.08.28-.162.474a7.679 7.679 0 01-1.014 1.665c-.417.531-.741.917-.989 1.239-.248.322-.442.576-.524.943-.081.367.074.782.286 1.044.212.263.475.484.825.795 1.32 1.172 1.537 1.526 1.558 1.56.022.036.007 0 .016.018-.075.024-.164.05-.172.052h-2.432s-.447-.015-.778-.234l-.001-.002h-.001c-.351-.23-.775-.623-1.21-.962a3.478 3.478 0 00-.698-.444c-.258-.116-.584-.199-.927-.096-.497.149-.773.622-.861.997-.064.27-.055.504-.057.74h-.794c-1.22 0-2.488-.371-3.857-1.801C3.592 6.14 2.005 2.547 1.766 2h2.096zm10.467.005c-.011.002.02.004.045.007-.003.001 0-.002-.004 0 0-.01-.027-.01-.041-.007z" fill="#000"/></svg>