<svg width="34" height="33" fill="none" xmlns="http://www.w3.org/2000/svg"><path d="M17.96 1.212l2.978 9.311a2.012 2.012 0 001.912 1.408h9.637c.963 0 1.4 1.274.59 1.872l-7.796 5.754a2.047 2.047 0 00-.728 2.27l2.978 9.31c.313.98-.78 1.729-1.55 1.16l-7.797-5.754a1.99 1.99 0 00-2.368 0l-7.797 5.755c-.77.568-1.863-.181-1.55-1.16l2.978-9.311a2.047 2.047 0 00-.728-2.27L.922 13.803c-.81-.598-.372-1.872.59-1.872h9.638c.876 0 1.645-.573 1.912-1.408l2.978-9.31a1.003 1.003 0 011.92-.001z" fill="#fff" stroke="#000"/></svg>